<svg width="24" height="24" viewBox="0 0 24 24" fill="none" xmlns="http://www.w3.org/2000/svg">
<path d="M7 12.5L10 15.5L18 7.5M22.6668 3.99998C22.6668 4.66665 22.6668 20 22.6668 20C22.6668 20.7072 22.3859 21.3855 21.8858 21.8856C21.3857 22.3857 20.7074 22.6666 20.0002 22.6666H4.00016C3.29292 22.6666 2.61464 22.3857 2.11454 21.8856C1.61445 21.3855 1.3335 20.7072 1.3335 20V3.99998C1.3335 3.29274 1.61445 2.61446 2.11454 2.11436C2.61464 1.61426 3.29292 1.33331 4.00016 1.33331C4.00016 1.33331 19.3335 1.33331 20.0002 1.33331C20.6668 1.33331 21.3335 1.33331 22.0002 1.99998C22.6668 2.66665 22.6668 3.33331 22.6668 3.99998Z" stroke="#43C550" stroke-width="2" stroke-linecap="round" stroke-linejoin="round"/>
</svg>
