<svg width="33" height="32" viewBox="0 0 33 32" fill="none" xmlns="http://www.w3.org/2000/svg">
<g id="Icon/linkedin">
<path id="Vector" d="M29.667 0.750116H3.66699C3.07707 0.744112 2.50886 0.972377 2.08704 1.38482C1.66522 1.79727 1.42425 2.36021 1.41699 2.95012V29.0551C1.42556 29.6442 1.66711 30.2058 2.08878 30.6172C2.51046 31.0285 3.07792 31.2561 3.66699 31.2501H29.667C30.257 31.2548 30.8248 31.0258 31.2464 30.6131C31.668 30.2003 31.9091 29.6375 31.917 29.0476V2.94262C31.9065 2.35444 31.6642 1.79418 31.2429 1.38363C30.8216 0.973077 30.2552 0.74541 29.667 0.750116Z" fill="#0076B2"/>
<path id="Vector_2" d="M5.93227 12.1826H10.4598V26.7501H5.93227V12.1826ZM8.19727 4.93262C8.71655 4.93262 9.22416 5.08663 9.6559 5.37518C10.0876 5.66373 10.4241 6.07385 10.6227 6.55365C10.8213 7.03345 10.8731 7.56138 10.7716 8.07065C10.6702 8.57992 10.4199 9.04764 10.0525 9.41466C9.68517 9.78167 9.21721 10.0315 8.70784 10.1325C8.19848 10.2335 7.6706 10.1811 7.19099 9.98208C6.71138 9.78302 6.30158 9.44618 6.01344 9.01417C5.72531 8.58216 5.57177 8.0744 5.57227 7.55512C5.57293 6.85936 5.84978 6.19232 6.34199 5.70058C6.83421 5.20884 7.50151 4.93262 8.19727 4.93262ZM13.2998 12.1826H17.6398V14.1826H17.6998C18.3048 13.0376 19.7798 11.8301 21.9823 11.8301C26.5673 11.8201 27.4173 14.8376 27.4173 18.7501V26.7501H22.8898V19.6626C22.8898 17.9751 22.8598 15.8026 20.5373 15.8026C18.2148 15.8026 17.8198 17.6426 17.8198 19.5526V26.7501H13.2998V12.1826Z" fill="white"/>
</g>
</svg>
