<svg width="90" height="32" viewBox="0 0 90 32" fill="none" xmlns="http://www.w3.org/2000/svg">
<path d="M9.16 15.72L7.48 30H0.36L4.88 0.599999L16.8 17.68L28.76 0.599999L33.28 30H26.16L24.48 15.72L16.8 27.4L9.16 15.72ZM41.985 24.6L42.465 19.44H56.345L56.785 24.6H41.985ZM49.305 12.28L45.385 21.32L45.705 22.8L42.225 30H34.585L49.305 0.239999L64.065 30H56.385L53.025 23.08L53.265 21.36L49.305 12.28ZM66.7991 2H73.5591V20.32C73.5591 21.7333 73.9324 22.88 74.6791 23.76C75.4257 24.64 76.5457 25.08 78.0391 25.08C79.5591 25.08 80.6924 24.64 81.4391 23.76C82.1857 22.88 82.5591 21.7333 82.5591 20.32V2H89.3191V20.8C89.3191 22.56 89.0257 24.0933 88.4391 25.4C87.8791 26.7067 87.0791 27.7867 86.0391 28.64C85.0257 29.4667 83.8257 30.0933 82.4391 30.52C81.0791 30.9467 79.6124 31.16 78.0391 31.16C76.4657 31.16 74.9991 30.9467 73.6391 30.52C72.2791 30.0933 71.0791 29.4667 70.0391 28.64C69.0257 27.7867 68.2257 26.7067 67.6391 25.4C67.0791 24.0933 66.7991 22.56 66.7991 20.8V2Z" fill="black"/>
</svg>
