<svg width="24" height="24" viewBox="0 0 24 24" fill="none" xmlns="http://www.w3.org/2000/svg">
<path d="M8.24301 7.33998L1.86301 8.26498L1.75001 8.28798C1.57895 8.3334 1.423 8.42339 1.2981 8.54879C1.1732 8.67418 1.08381 8.83047 1.03907 9.00171C0.994331 9.17295 0.995837 9.35299 1.04344 9.52346C1.09104 9.69392 1.18303 9.8487 1.31001 9.97198L5.93201 14.471L4.84201 20.826L4.82901 20.936C4.81854 21.1129 4.85528 21.2894 4.93546 21.4475C5.01564 21.6055 5.13639 21.7395 5.28535 21.8355C5.4343 21.9315 5.6061 21.9863 5.78316 21.9941C5.96022 22.0019 6.13617 21.9625 6.29301 21.88L11.999 18.88L17.692 21.88L17.792 21.926C17.9571 21.991 18.1365 22.0109 18.3118 21.9837C18.4871 21.9566 18.652 21.8832 18.7896 21.7712C18.9272 21.6593 19.0326 21.5127 19.0948 21.3466C19.1571 21.1805 19.1741 21.0008 19.144 20.826L18.053 14.471L22.677 9.97098L22.755 9.88598C22.8664 9.74875 22.9395 9.58444 22.9667 9.40978C22.994 9.23512 22.9744 9.05636 22.9101 8.89171C22.8458 8.72707 22.7389 8.58242 22.6005 8.4725C22.4621 8.36258 22.297 8.29132 22.122 8.26598L15.742 7.33998L12.89 1.55998C12.8075 1.39252 12.6797 1.2515 12.5212 1.15289C12.3627 1.05428 12.1797 1.00201 11.993 1.00201C11.8063 1.00201 11.6233 1.05428 11.4648 1.15289C11.3063 1.2515 11.1785 1.39252 11.096 1.55998L8.24301 7.33998Z" fill="#FFBC10"/>
</svg>
