<svg width="294" height="116" viewBox="0 0 294 116" fill="none" xmlns="http://www.w3.org/2000/svg">
<path d="M0.255 92.56L63.455 1.99999H74.815V114H55.455V85.84L56.575 84.08V35.76L27.935 77.68H66.815L69.535 76.24H92.415V92.56H0.255ZM122.96 58C122.96 63.9733 123.547 69.4667 124.72 74.48C125.893 79.4933 127.547 83.8133 129.68 87.44C131.92 91.0667 134.587 93.8933 137.68 95.92C140.773 97.84 144.187 98.8 147.92 98.8C151.867 98.8 155.333 97.84 158.32 95.92C161.413 93.8933 164.027 91.0667 166.16 87.44C168.4 83.8133 170.107 79.4933 171.28 74.48C172.453 69.4667 173.04 63.9733 173.04 58C173.04 52.0267 172.453 46.5333 171.28 41.52C170.107 36.5067 168.4 32.1867 166.16 28.56C164.027 24.9333 161.413 22.16 158.32 20.24C155.333 18.2133 151.867 17.2 147.92 17.2C144.187 17.2 140.773 18.2133 137.68 20.24C134.587 22.16 131.92 24.9333 129.68 28.56C127.547 32.1867 125.893 36.5067 124.72 41.52C123.547 46.5333 122.96 52.0267 122.96 58ZM104.4 58C104.4 46.3733 106.213 36.24 109.84 27.6C113.573 18.96 118.693 12.24 125.2 7.44C131.813 2.64 139.387 0.239996 147.92 0.239996C156.667 0.239996 164.293 2.64 170.8 7.44C177.413 12.24 182.533 18.96 186.16 27.6C189.787 36.24 191.6 46.3733 191.6 58C191.6 69.6267 189.787 79.76 186.16 88.4C182.533 97.04 177.413 103.76 170.8 108.56C164.293 113.36 156.667 115.76 147.92 115.76C139.387 115.76 131.813 113.36 125.2 108.56C118.693 103.76 113.573 97.04 109.84 88.4C106.213 79.76 104.4 69.6267 104.4 58ZM200.88 92.56L264.08 1.99999H275.44V114H256.08V85.84L257.2 84.08V35.76L228.56 77.68H267.44L270.16 76.24H293.04V92.56H200.88Z" fill="#43C550"/>
</svg>
